<?xml version="1.0" standalone="no"?>
<!DOCTYPE svg PUBLIC "-//W3C//DTD SVG 20010904//EN"
 "http://www.w3.org/TR/2001/REC-SVG-20010904/DTD/svg10.dtd">
<svg version="1.0" xmlns="http://www.w3.org/2000/svg"
 width="16.000000pt" height="16.000000pt" viewBox="0 0 16.000000 16.000000"
 preserveAspectRatio="xMidYMid meet">
<metadata>
Created by potrace 1.11, written by Peter Selinger 2001-2013
</metadata>
<g transform="translate(0.000000,16.000000) scale(0.006154,-0.006154)"
fill="#000000" stroke="none">
<path d="M1071 2141 c-7 -5 -11 -13 -7 -19 3 -6 1 -14 -5 -18 -8 -4 -9 -3 -5
4 9 15 -26 32 -51 26 -21 -6 -40 -44 -22 -44 5 0 9 -9 9 -19 0 -11 8 -22 18
-24 16 -4 16 -5 0 -6 -10 0 -18 -5 -18 -10 0 -14 -39 -20 -43 -7 -3 6 -10 -1
-17 -16 -21 -45 -60 -29 -60 24 0 15 -5 28 -11 28 -5 0 -8 -4 -4 -9 3 -5 1
-12 -4 -16 -6 -3 -8 -13 -5 -23 5 -16 5 -16 -6 1 -16 24 -25 21 -27 -10 0 -16
-2 -39 -3 -53 -1 -14 2 -37 5 -52 6 -22 4 -28 -10 -28 -9 0 -23 -7 -31 -15 -8
-8 -21 -12 -30 -8 -12 4 -15 -3 -13 -42 2 -38 -1 -50 -19 -64 -25 -19 -46 -68
-32 -76 13 -8 13 -65 0 -65 -10 0 -14 14 -10 40 1 12 -1 12 -11 3 -9 -9 -9
-17 3 -35 15 -23 78 -54 78 -38 0 4 6 8 13 7 6 0 21 1 31 1 18 2 18 3 3 20
-21 23 -21 32 -2 32 9 0 15 9 15 22 l0 22 15 -22 c9 -12 15 -27 14 -34 -4 -30
3 -38 29 -38 15 0 33 5 39 11 13 13 5 89 -12 109 -25 30 -25 62 1 95 25 33 33
58 12 37 -16 -16 -29 -15 -22 1 3 9 23 14 57 15 29 0 64 1 78 1 19 1 29 8 33
23 5 14 9 18 13 11 7 -18 23 -16 23 2 0 18 16 20 24 3 5 -10 7 -10 12 -1 6 13
35 6 45 -10 4 -5 27 -11 50 -13 75 -7 110 -15 104 -24 -3 -5 3 -24 13 -42 31
-58 28 -91 -13 -126 -20 -18 -41 -32 -47 -32 -6 0 -34 -11 -62 -25 -28 -13
-72 -25 -98 -27 -27 -1 -48 -5 -48 -10 0 -4 5 -8 10 -8 6 0 10 -8 10 -18 0
-10 7 -28 16 -40 12 -17 12 -22 2 -22 -15 0 -48 -34 -48 -49 0 -6 -18 -10 -39
-9 -37 0 -39 2 -45 37 -3 22 -16 46 -32 60 -23 20 -30 21 -50 11 -42 -23 -76
-135 -99 -333 -8 -66 3 -104 47 -155 15 -18 28 -37 28 -42 0 -26 32 -5 56 38
15 26 29 49 31 52 8 9 23 -25 23 -51 0 -15 9 -38 20 -52 24 -30 25 -54 5 -77
-23 -25 -85 -181 -85 -212 0 -26 -3 -28 -44 -28 -83 0 -94 -15 -44 -61 31 -28
32 -32 33 -109 l1 -80 -34 0 c-26 0 -33 3 -28 15 4 10 -1 15 -14 15 -13 0 -18
5 -14 15 4 8 2 15 -4 15 -17 0 -22 -30 -9 -50 6 -11 27 -23 46 -26 34 -7 186
0 231 11 14 3 19 3 13 -1 -19 -8 -16 -28 7 -49 18 -16 34 -18 174 -12 84 4
161 9 170 13 9 3 16 16 17 28 0 11 3 16 5 9 3 -7 17 -10 32 -8 298 50 311 51
482 40 103 -8 399 10 413 24 8 8 8 11 -1 11 -7 0 -5 11 6 30 29 51 52 34 52
-37 0 -23 4 -33 13 -30 6 2 11 15 11 28 -3 64 -12 117 -22 136 -7 12 -21 67
-32 123 -23 122 -78 233 -219 445 -50 74 -91 138 -91 142 0 3 -19 29 -43 58
-48 58 -164 157 -154 131 4 -9 2 -16 -3 -16 -15 0 -12 -28 3 -33 17 -6 -30
-44 -68 -56 l-30 -8 27 -8 c18 -4 36 -22 50 -46 13 -23 27 -38 35 -35 24 10
22 -11 -2 -24 -14 -7 -25 -19 -25 -25 0 -12 27 -40 38 -40 10 0 11 -41 1 -56
-8 -12 -10 -12 -18 0 -5 8 -11 9 -15 3 -3 -5 1 -15 9 -22 19 -16 19 -31 0 -24
-11 5 -14 0 -13 -17 2 -19 -3 -25 -22 -28 -24 -3 -23 -4 10 -17 l35 -13 -35 2
c-30 2 -36 -2 -51 -32 -11 -23 -18 -30 -22 -20 -4 10 -6 9 -6 -4 -1 -10 -5
-16 -10 -13 -5 3 -12 -4 -16 -17 -4 -15 -8 -18 -12 -8 -8 20 17 122 28 116 14
-10 11 0 -10 23 -10 12 -27 22 -38 22 -10 0 -25 6 -32 12 -11 10 -13 10 -7 1
4 -7 3 -13 -2 -13 -5 0 -12 10 -16 23 -5 19 -8 20 -17 7 -8 -12 -10 -9 -6 12
3 20 0 25 -11 20 -10 -3 -13 0 -10 9 3 8 9 14 14 14 5 0 24 6 41 14 27 11 31
16 23 31 -5 9 -7 20 -4 22 2 3 -7 3 -21 1 -18 -4 -25 -1 -25 10 0 8 7 14 16
13 12 -1 17 8 18 37 0 20 -2 37 -6 37 -5 0 -8 9 -8 20 0 18 7 20 58 21 l57 1
-57 12 c-41 8 -62 18 -77 38 -12 14 -21 30 -21 35 0 4 4 2 9 -6 7 -11 12 -6
19 20 7 28 5 36 -10 47 -10 7 -18 18 -18 23 0 17 -29 40 -47 38 -10 -1 -26 1
-36 6 -16 7 -16 9 -2 31 18 27 11 50 -17 57 -11 3 -17 10 -14 16 4 6 13 8 21
4 10 -3 15 1 15 13 1 18 1 18 14 1 19 -24 29 -6 16 28 -13 33 -13 38 0 30 6
-3 10 -2 10 3 0 5 -9 12 -20 15 -14 4 -20 0 -21 -11 0 -11 -2 -12 -6 -4 -2 6
-11 12 -19 12 -7 0 -21 15 -31 33 l-17 32 -6 -35 -6 -35 -8 30 c-10 41 -37 70
-48 53 -5 -8 -8 -3 -8 15 0 16 4 26 10 22 15 -9 12 6 -6 26 -9 10 -17 40 -19
72 -2 31 -6 60 -10 66 -11 19 -25 12 -25 -13 0 -14 -13 -38 -31 -56 -28 -27
-36 -30 -69 -25 -39 7 -42 16 -23 65 8 19 7 26 -3 28 -8 2 -12 8 -9 13 3 5 -2
6 -11 2 -13 -5 -16 -3 -11 10 5 14 3 15 -13 5 -16 -10 -23 -9 -43 10 -26 25
-27 25 -46 13z m-43 -41 c-7 -11 -15 -15 -17 -9 -2 6 3 15 10 20 20 12 21 11
7 -11z m-288 -469 c0 -5 -11 -16 -25 -25 -31 -20 -32 -14 -3 14 24 22 28 24
28 11z m413 -176 c-8 -22 -22 -18 -16 5 3 11 9 17 14 15 4 -3 6 -12 2 -20z
m472 -125 c3 -5 2 -10 -4 -10 -5 0 -13 5 -16 10 -3 6 -2 10 4 10 5 0 13 -4 16
-10z m27 -80 c10 0 18 -4 18 -10 0 -5 -4 -10 -9 -10 -5 0 -16 -3 -24 -6 -10
-3 -16 3 -19 21 -4 19 -2 23 5 16 6 -6 19 -11 29 -11z m238 5 c0 -8 -4 -15
-10 -15 -5 0 -10 7 -10 15 0 8 5 15 10 15 6 0 10 -7 10 -15z m-240 -165 c0 -5
-4 -10 -10 -10 -5 0 -10 5 -10 10 0 6 5 10 10 10 6 0 10 -4 10 -10z m440 -150
c0 -17 3 -19 19 -10 25 13 31 13 31 -1 0 -18 29 -41 42 -33 8 5 9 2 5 -11 -4
-9 -3 -23 3 -30 8 -9 5 -14 -10 -18 -11 -3 -20 -10 -20 -16 0 -7 9 -9 24 -5
27 6 44 -12 27 -29 -8 -8 -11 -8 -11 2 0 8 -7 11 -20 8 -10 -3 -21 0 -23 7 -2
6 -8 8 -12 4 -12 -11 3 -26 34 -33 16 -3 37 -15 47 -26 16 -18 16 -19 -1 -19
-10 0 -16 -3 -12 -6 3 -3 -4 -15 -15 -26 -16 -16 -18 -22 -7 -29 10 -6 8 -9
-8 -9 -18 0 -23 -6 -23 -24 0 -19 -10 -29 -50 -47 -30 -15 -50 -31 -50 -41 0
-30 -18 -29 -25 2 -6 28 -35 44 -35 19 0 -6 -7 -8 -16 -5 -17 7 -36 -9 -47
-38 -7 -18 -8 -18 -20 -2 -12 17 -16 17 -53 1 -24 -10 -34 -11 -26 -4 6 7 12
21 12 31 0 10 5 18 10 18 6 0 10 -4 10 -10 0 -5 5 -10 10 -10 6 0 10 11 10 25
0 25 15 35 22 14 2 -7 4 4 4 24 0 22 -3 32 -8 24 -4 -6 -8 -8 -8 -3 0 17 -32
-18 -52 -58 -21 -41 -35 -56 -53 -56 -5 1 -1 8 10 18 11 9 21 30 23 45 2 32
15 47 55 65 15 6 30 19 33 27 4 8 10 15 15 15 4 0 5 -7 2 -17 -4 -11 -3 -14 5
-9 7 4 12 13 12 21 0 7 7 21 16 29 14 15 14 16 -5 16 -11 0 -36 -15 -55 -34
-24 -25 -40 -33 -55 -29 -12 3 -21 1 -21 -6 0 -6 -4 -11 -10 -11 -18 0 -11 18
19 46 17 15 27 32 25 36 -3 5 6 6 20 2 23 -5 25 -3 23 23 -2 24 1 28 23 26 23
-3 23 -2 8 11 -25 18 -22 27 5 18 35 -13 78 5 50 21 -5 2 -2 2 5 1 19 -5 42 7
53 28 9 17 8 19 -13 16 -17 -2 -22 1 -20 14 2 14 -1 15 -23 5 -14 -7 -25 -15
-25 -19 0 -5 -4 -8 -10 -8 -17 0 11 47 34 58 23 10 77 29 89 31 4 1 7 -8 7
-19z m230 -306 c0 -8 -4 -12 -10 -9 -5 3 -10 10 -10 16 0 5 5 9 10 9 6 0 10
-7 10 -16z m-542 -68 c-7 -8 -15 -12 -17 -11 -5 6 10 25 20 25 5 0 4 -6 -3
-14z m-312 -56 c-7 -8 -18 -30 -26 -47 -7 -18 -16 -33 -21 -33 -5 0 -6 6 -3
13 3 8 0 26 -6 41 -9 24 -7 30 17 50 25 22 29 22 39 7 10 -12 10 -19 0 -31z
m561 -4 c-4 -9 -11 -16 -17 -16 -11 0 -14 33 -3 44 11 10 26 -11 20 -28z
m-1084 -46 c-3 -11 -14 -25 -24 -30 -16 -9 -17 -8 -8 20 12 34 40 43 32 10z
m167 6 c0 -2 -8 -10 -17 -17 -16 -13 -17 -12 -4 4 13 16 21 21 21 13z m19 -88
c1 -5 -3 -8 -7 -8 -4 0 -8 12 -9 28 -1 23 -1 24 7 7 5 -11 9 -23 9 -27z m158
10 c-3 -8 -6 -5 -6 6 -1 11 2 17 5 13 3 -3 4 -12 1 -19z m-30 -4 c-3 -3 -12
-4 -19 -1 -8 3 -5 6 6 6 11 1 17 -2 13 -5z"/>
<path d="M2076 892 c-12 -11 -5 -17 19 -18 14 -1 25 2 25 6 0 10 -37 20 -44
12z"/>
<path d="M2135 840 c-3 -5 -2 -10 4 -10 5 0 13 5 16 10 3 6 2 10 -4 10 -5 0
-13 -4 -16 -10z"/>
<path d="M2046 792 c-4 -7 0 -19 8 -28 9 -8 16 -13 16 -11 0 3 3 13 7 23 4 11
3 15 -4 11 -6 -4 -13 -2 -15 5 -3 9 -6 9 -12 0z"/>
<path d="M1990 690 c0 -5 5 -10 11 -10 5 0 7 5 4 10 -3 6 -8 10 -11 10 -2 0
-4 -4 -4 -10z"/>
<path d="M890 2024 c0 -8 5 -12 10 -9 6 4 8 11 5 16 -9 14 -15 11 -15 -7z"/>
<path d="M1236 2023 c-3 -3 -3 -10 0 -14 7 -12 34 -11 34 0 0 11 -26 22 -34
14z"/>
<path d="M1062 1771 c-17 -10 -6 -54 19 -77 14 -13 16 -20 8 -31 -6 -7 -16
-13 -21 -13 -14 0 -35 24 -41 46 -4 18 -5 18 -6 -1 0 -12 -6 -26 -12 -32 -22
-22 2 -30 88 -27 53 1 90 -2 94 -8 13 -21 29 2 19 28 -13 34 -13 57 1 48 6 -3
-1 12 -16 35 -26 38 -31 41 -74 41 -25 0 -52 -4 -59 -9z m114 -78 c-2 -16 -10
-29 -20 -31 -21 -4 -21 13 1 38 22 25 22 25 19 -7z"/>
<path d="M959 1611 c-9 -9 -14 -22 -12 -28 7 -20 23 -15 23 6 0 11 5 21 12 23
7 3 8 7 3 10 -6 3 -17 -2 -26 -11z"/>
<path d="M950 1530 c0 -5 5 -10 11 -10 5 0 7 5 4 10 -3 6 -8 10 -11 10 -2 0
-4 -4 -4 -10z"/>
<path d="M807 484 c-3 -3 -3 -13 0 -21 5 -12 7 -12 14 -1 15 23 4 40 -14 22z"/>
</g>
</svg>
